<?xml version="1.0" encoding="UTF-8" standalone="no"?>
<!-- Created with Inkscape (http://www.inkscape.org/) -->

<svg
   width="135.47mm"
   height="135.47mm"
   version="1.1"
   viewBox="0 0 135.47 135.47"
   xml:space="preserve"
   id="svg4"
   sodipodi:docname="Input_settings_icon_-_Flight_Stick.svg"
   inkscape:version="1.4 (86a8ad7, 2024-10-11)"
   xmlns:inkscape="http://www.inkscape.org/namespaces/inkscape"
   xmlns:sodipodi="http://sodipodi.sourceforge.net/DTD/sodipodi-0.dtd"
   xmlns="http://www.w3.org/2000/svg"
   xmlns:svg="http://www.w3.org/2000/svg"><defs
     id="defs4" /><sodipodi:namedview
     id="namedview4"
     pagecolor="#ffffff"
     bordercolor="#000000"
     borderopacity="0.25"
     inkscape:showpageshadow="2"
     inkscape:pageopacity="0.0"
     inkscape:pagecheckerboard="0"
     inkscape:deskcolor="#d1d1d1"
     inkscape:document-units="mm"
     inkscape:zoom="0.55809173"
     inkscape:cx="8.0631906"
     inkscape:cy="15.230471"
     inkscape:window-width="2560"
     inkscape:window-height="1344"
     inkscape:window-x="-9"
     inkscape:window-y="-9"
     inkscape:window-maximized="1"
     inkscape:current-layer="svg4" /><circle
     cx="67.733"
     cy="67.733"
     r="67.733"
     fill="#24345e"
     stroke-width="5.4276"
     id="circle1" /><g
     fill="#9eabc9"
     stroke="#fff"
     stroke-linecap="round"
     stroke-linejoin="round"
     id="g3"><path
       transform="matrix(-0.56276,0,0,0.57459,325.66,-49.353)"
       d="m 392.94,143.6 c 1.5165,2.4011 4.4652,5.1814 6.8242,7.6106 2.359,2.4292 4.1282,4.5073 5.6307,6.6698 1.5025,2.1624 2.7381,4.409 3.5385,6.403 0.8004,1.994 1.1654,3.735 1.2637,5.8413 0.0983,2.1063 -0.0702,4.5776 1.1374,5.9677 1.2076,1.3901 3.7912,1.699 6.6557,1.5446 2.8645,-0.15446 6.0098,-0.77228 8.8883,-1.5867 2.8786,-0.81442 5.4902,-1.8254 9.3377,-3.9598 3.8474,-2.1344 8.9304,-5.3919 10.335,-8.5092 1.4042,-3.1173 -0.87055,-6.094 -7.737,-10.545 -6.8665,-4.4512 -18.324,-10.377 -26.707,-13.662 -8.383,-3.285 -13.691,-3.9316 -16.653,-3.8614 -2.9628,0.0702 -3.5806,0.85653 -3.8474,2.2607 -0.2668,1.40417 -0.18253,3.4261 1.334,5.8272 z"
       stroke-width="2.5"
       id="path1"
       sodipodi:nodetypes="cscssscscccssscc"
       style="display:inline;fill:#757f95;fill-opacity:1" /><rect
       transform="matrix(-.96416 .26532 .36981 .92911 0 0)"
       x="-78.748"
       y="43.185"
       width="12.52"
       height="10.803"
       rx="4.9511"
       ry="5.4014"
       stroke-width="1.6643"
       id="rect1"
       style="fill:#757f95;fill-opacity:1" /><rect
       transform="scale(-1,1)"
       x="-67.004"
       y="84.621"
       width="15.528"
       height="19.927"
       rx="0"
       ry="0"
       stroke-width="2.026"
       id="rect2" /><rect
       transform="matrix(-.68246 .73092 .79684 .6042 0 0)"
       x="-23.055"
       y="70.854"
       width="12.64"
       height="10.691"
       rx="4.9987"
       ry="5.3454"
       stroke-width="1.6636"
       id="rect3"
       style="fill:#757f95;fill-opacity:1" /></g><g
     fill="#24345e"
     stroke="#fff"
     stroke-linecap="round"
     stroke-linejoin="round"
     id="g4"><path
       transform="matrix(-0.56276,0,0,0.57459,325.28,-49.353)"
       d="m 462.47,245.2 c 9.8839,0.0304 29.651,0.0913 41.25,0.16904 11.599,0.0777 15.029,0.17232 16.74,-1.2194 1.711,-1.39172 1.7017,-4.2696 -0.7984,-5.7437 -2.5001,-1.4741 -7.4912,-1.5444 -11.56,-2.2874 -4.0688,-0.743 -7.2148,-2.159 -10.08,-6.1676 -2.8651,-4.0086 -5.4491,-10.61 -7.317,-15.568 -1.8679,-4.9587 -3.0196,-8.2749 -5.1146,-13.349 -2.095,-5.0741 -5.1332,-11.905 -8.3601,-18.22 -3.2269,-6.315 -6.6424,-12.113 -9.631,-16.72 -2.9886,-4.607 -5.5502,-8.0225 -7.8438,-10.763 -2.2936,-2.7404 -4.3191,-4.8056 -6.1956,-6.4935 -1.8766,-1.6879 -3.6042,-2.9985 -6.295,-4.895 -2.6908,-1.8964 -6.3445,-4.3786 -10.018,-6.5134 -3.6737,-2.1347 -7.3672,-3.9219 -13.066,-5.5602 -5.6988,-1.6383 -13.404,-3.1276 -18.924,-3.902 -5.5205,-0.77446 -8.8566,-0.83403 -11.904,-0.89905 -3.0475,-0.065 -5.8064,-0.13547 -7.3894,-0.18298 -1.5831,-0.0475 -1.9902,-0.0721 -2.1412,0.64408 -0.15093,0.71615 -0.0456,2.1729 0.18614,3.7509 0.23171,1.5779 0.58976,3.2769 1.3761,4.9935 0.78635,1.7166 2.0009,3.4507 3.3103,4.8759 1.3094,1.4252 2.7135,2.5415 9.8041,5.4009 7.0906,2.8594 19.868,7.4618 29.381,18.348 9.5132,10.886 15.762,28.055 19.379,41.442 3.6162,13.387 4.5991,22.991 5.0625,28.524 0.46338,5.5324 0.40722,6.9927 0.37914,8.0195 -0.0281,1.0268 -0.0281,1.62 0.10714,1.9272 0.13522,0.30717 0.40519,0.32821 0.39112,0.34048 -0.0141,0.0123 -0.3123,0.0157 -0.46151,0.0175 -0.1492,0.002 -0.1492,0.002 9.7347,0.0322 z"
       stroke-width="3"
       id="path3"
       sodipodi:nodetypes="ccsssccsssccccsssscssssccssssccc"
       style="fill:#9eabc9;fill-opacity:1" /><rect
       transform="scale(-1,1)"
       x="-72.678"
       y="98.278"
       width="26.82"
       height="11.912"
       rx="5.8334"
       ry="5.956"
       stroke-width="1.4216"
       id="rect4" /><path
       d="m81.009 103.97c5.2117 0 9.4074 3.2764 9.4074 7.346v3.465h-62.351v-3.465c0-4.0696 4.1957-7.346 9.4074-7.346z"
       stroke-width="1.2918"
       id="path4"
       style="fill:#24345e;fill-opacity:1" /></g></svg>
