<?xml version="1.0" encoding="UTF-8" standalone="no"?>
<!-- Created with Inkscape (http://www.inkscape.org/) -->

<svg
   width="135.47mm"
   height="135.47mm"
   version="1.1"
   viewBox="0 0 135.47 135.47"
   xml:space="preserve"
   id="svg6"
   sodipodi:docname="Input_settings_icon_-_Arcade_Controller.svg"
   inkscape:version="1.4 (86a8ad7, 2024-10-11)"
   xmlns:inkscape="http://www.inkscape.org/namespaces/inkscape"
   xmlns:sodipodi="http://sodipodi.sourceforge.net/DTD/sodipodi-0.dtd"
   xmlns="http://www.w3.org/2000/svg"
   xmlns:svg="http://www.w3.org/2000/svg"><defs
     id="defs6" /><sodipodi:namedview
     id="namedview6"
     pagecolor="#ffffff"
     bordercolor="#000000"
     borderopacity="0.25"
     inkscape:showpageshadow="2"
     inkscape:pageopacity="0.0"
     inkscape:pagecheckerboard="0"
     inkscape:deskcolor="#d1d1d1"
     inkscape:document-units="mm"
     inkscape:zoom="1.5702356"
     inkscape:cx="107.30874"
     inkscape:cy="260.15204"
     inkscape:window-width="2560"
     inkscape:window-height="1344"
     inkscape:window-x="-9"
     inkscape:window-y="-9"
     inkscape:window-maximized="1"
     inkscape:current-layer="g5" /><g
     id="g6"><circle
       cx="67.733"
       cy="67.733"
       r="67.733"
       fill="#24345e"
       stroke-width="5.4276"
       id="circle1" /><g
       transform="matrix(1.6366 0 0 1.6366 -265.33 333.87)"
       stroke-linecap="round"
       stroke-linejoin="round"
       id="g5"><path
         d="m184.34-170.87 38.314-0.0176c3.706-2e-3 6.6899 2.0393 6.6899 4.5763v20.688c0 2.537-2.9839 4.5794-6.6899 4.5794h-38.314c-3.7013 0-6.6807-2.0408-6.6807-4.5757v-20.671c0-2.535 2.9794-4.5771 6.6807-4.5788z"
         fill="#fff"
         stroke-width="3.947"
         id="path1"
         style="stroke:#9eabc9;stroke-opacity:1;stroke-width:1.5642185;stroke-dasharray:none" /><g
         fill="#24345e"
         id="g4"><path
           d="m183.48-147.25c1.6156-7e-3 2.9255 0.7154 2.9255 1.6189s-1.31 1.633-2.9255 1.633c-1.6078 0-2.9004-0.72314-2.9004-1.6188-4e-5 -0.89572 1.2926-1.6252 2.9004-1.633z"
           stroke-width=".10522"
           id="path2" /><path
           transform="matrix(1.3876 0 0 1.3876 168.08 -194.5)"
           d="m25.463 19.252c-8.3052 0.03663-15.033 3.4934-15.032 7.7058 2.39e-4 4.2123 6.7278 7.639 15.033 7.639 8.3448 0 15.163-3.4565 15.163-7.7056 0-4.2491-6.8182-7.676-15.163-7.6392zm3.2e-5 1.1177c7.1507-0.02924 12.944 2.8864 12.944 6.5264 1.5e-5 3.6399-5.7936 6.5799-12.944 6.5822-7.1213 0.0023-12.851-2.9123-12.851-6.5254-1.9e-4 -3.6131 5.7291-6.5541 12.851-6.5833zm4.3e-5 1.4998c-5.4764 0.02003-9.9188 2.2975-9.9186 5.077 1.3e-4 2.7795 4.4426 5.0362 9.9189 5.0321 5.4936-0.0041 9.9735-2.2805 9.9735-5.0759-2.7e-5 -2.7954-4.48-5.0532-9.9737-5.0331zm2e-5 0.70854c4.7385-0.01637 8.5736 1.9169 8.5736 4.3276 2.9e-5 2.4107-3.8349 4.3606-8.5734 4.3651-4.7256 0.0045-8.532-1.9285-8.5321-4.3274-1.07e-4 -2.3989 3.8062-4.349 8.5318-4.3654z"
           stroke-width=".52035"
           id="path3" /><g
           transform="matrix(1.0471 0 0 1.0471 185.33 -116.3)"
           stroke="#fff"
           id="g3"><rect
             x="13.768"
             y="-69.033"
             width="7.1732"
             height="31.375"
             rx="3.5866"
             ry="3.5866"
             stroke-width="1.0428"
             id="rect3" /><circle
             cx="17.355"
             cy="-63.131001"
             r="10.084"
             stroke-width="1.9295"
             id="circle3"
             style="display:inline;stroke:#9eabc9;stroke-opacity:1;fill:#ffffff;fill-opacity:1" /></g></g></g></g></svg>
