<?xml version="1.0" encoding="UTF-8" standalone="no"?>
<!-- Created with Inkscape (http://www.inkscape.org/) -->

<svg
   width="135.47mm"
   height="135.47mm"
   version="1.1"
   viewBox="0 0 135.47 135.47"
   xml:space="preserve"
   id="svg13"
   sodipodi:docname="Input_settings_icon_-_Instruments_Controller.svg"
   inkscape:version="1.4 (86a8ad7, 2024-10-11)"
   xmlns:inkscape="http://www.inkscape.org/namespaces/inkscape"
   xmlns:sodipodi="http://sodipodi.sourceforge.net/DTD/sodipodi-0.dtd"
   xmlns="http://www.w3.org/2000/svg"
   xmlns:svg="http://www.w3.org/2000/svg"><defs
     id="defs13" /><sodipodi:namedview
     id="namedview13"
     pagecolor="#ffffff"
     bordercolor="#000000"
     borderopacity="0.25"
     inkscape:showpageshadow="2"
     inkscape:pageopacity="0.0"
     inkscape:pagecheckerboard="0"
     inkscape:deskcolor="#d1d1d1"
     inkscape:document-units="mm"
     inkscape:zoom="1.5702356"
     inkscape:cx="376.69507"
     inkscape:cy="202.19896"
     inkscape:window-width="2560"
     inkscape:window-height="1344"
     inkscape:window-x="-9"
     inkscape:window-y="-9"
     inkscape:window-maximized="1"
     inkscape:current-layer="g12" /><g
     transform="translate(-60.812 17.152)"
     id="g13"><g
       transform="matrix(2.2643 0 0 2.2643 -829.42 238.9)"
       display="none"
       id="g6"><path
         d="m462.56-99.856c-0.93069-1.6e-4 -1.6852 1.0184-1.6852 2.2748 1.6e-4 1.2562 0.75462 2.2744 1.6852 2.2743 0.79249-2e-3 1.4768-0.74941 1.6438-1.7952h4.3723v-1.2511h-4.4318c-0.24091-0.90149-0.87451-1.5024-1.5844-1.5028zm1.3146 5.3475c-0.93034 2.23e-4 -1.6845 1.0183-1.6846 2.2743-5e-5 1.2562 0.75416 2.2746 1.6846 2.2748 0.7926-0.0021 1.477-0.74972 1.6438-1.7958h3.7966l-0.32646-1.2511h-3.5291c-0.2411-0.90152-0.87493-1.5023-1.5849-1.5022zm1.3736 5.4627c-0.93049 2.24e-4 -1.6847 1.0186-1.6846 2.2748-5e-5 1.2562 0.75416 2.2746 1.6846 2.2748 0.7926-0.0021 1.477-0.74972 1.6438-1.7958h3.2701v-1.2511h-3.329c-0.24097-0.90173-0.87484-1.5027-1.5849-1.5028zm1.5689 5.7573c-0.93069-1.64e-4 -1.6852 1.0184-1.6852 2.2748-5e-5 1.2564 0.75448 2.275 1.6852 2.2748 0.7926-0.0021 1.477-0.74972 1.6438-1.7958h2.2722v-1.2511h-2.3316c-0.24091-0.90148-0.87451-1.5024-1.5844-1.5028z"
         fill="#fff"
         id="path1" /><path
         transform="matrix(.80945 0 0 .83065 92.844 -70.861)"
         d="m466.58-37.443c2.8434 0.41422 8.53 1.2426 11.346 2.22s2.7626 2.1037 2.5065 6.7667c-0.2561 4.663-0.71471 12.868-0.97372 17.013-0.25901 4.1455-0.31857 4.2348-0.48238 4.3639-0.16382 0.12907-0.4319 0.29786-0.67019 0.53119-0.2383 0.23333-0.44679 0.53118-0.70494 1.1377-0.25815 0.60656-0.56592 1.5218-0.70989 2.9615-0.14396 1.4397-0.1241 3.4037-0.1258 4.5592-2e-3 1.1555-0.025 1.5023-0.0482 1.8492-3.0048 0.042124-6.0097 0.084247-9.0145 0.12637 0.0247-1.7591 0.0494-3.5183 0.019-4.8465-0.0303-1.3282-0.11344-2.2012-0.21311-2.869-0.0997-0.66774-0.21341-1.1097-0.36083-1.4884s-0.32807-0.69231-0.61103-1.0326c-0.28295-0.34034-0.62939-0.67038-0.81303-0.90308s-0.18464-0.34914-0.83498-11.345c-0.65034-10.995-0.47291-8.0093-0.81306-13.734s-0.33967-5.7249 2.5037-5.3107z"
         fill="#fff"
         id="path2" /><g
         fill="#24345e"
         id="g5"><circle
           cx="472.5"
           cy="-81.251"
           r="1.4004"
           id="circle2" /><circle
           cx="472.03"
           cy="-86.974"
           r="1.4004"
           id="circle3" /><circle
           cx="471.5"
           cy="-92.47"
           r="1.4004"
           id="circle4" /><circle
           cx="470.88"
           cy="-97.727"
           r="1.4004"
           id="circle5" /></g></g><g
       transform="rotate(-6.209 128.55 50.581)"
       id="g12"><path
         d="m128.55-17.152a67.733 67.733 0 0 0-67.733 67.733 67.733 67.733 0 0 0 15.256 42.635c3.3022-2.9124 6.5405-5.7799 8.9622-8.0739 2.7385-2.5941 4.4215-4.4288 5.6415-5.9061 1.22-1.4773 1.9389-2.5529 2.4619-3.577s0.84711-1.9925 1.0377-3.2215 0.24163-2.5688 0.39016-3.3889 0.39155-1.0442 22.321-23.338c21.93-22.294 15.976-16.238 27.391-27.848 11.415-11.611 11.416-11.61 15.826-4.9894 4.4103 6.6202 13.23 19.861 16.406 27.499 3.1752 7.6385 0.70532 9.6748-9.5829 18.039-10.288 8.3639-28.405 23.064-37.61 30.435-9.2045 7.3714-9.5036 7.4192-10.079 7.3293-0.57592-0.08988-1.429-0.31737-2.3626-0.36122-0.93365-0.04385-1.9477 0.09603-3.7036 0.72295s-4.2535 1.7407-7.5504 4.1899c-3.297 2.4492-7.3927 6.2339-9.8273 8.4331-0.16705 0.1509-0.20669 0.1803-0.35863 0.31678a67.733 67.733 0 0 0 33.115 8.8382 67.733 67.733 0 0 0 67.733-67.733 67.733 67.733 0 0 0-67.733-67.733z"
         fill="#24345e"
         stroke-width="5.4276"
         id="path6" /><path
         d="m 136.91555,-2.0814791 c -2.1355,-2.3581 -6.4473,-1.9321 -9.6301,0.95142 -3.1821,2.8834 -4.0301,7.1314 -1.8942,9.4884 1.8241,2.0028001 5.2877,2.0214001 8.3204,0.0444 l 10.034,11.0770001 3.1694,-2.8712 -10.171,-11.2270001 c 1.7309,-2.6792 1.7992,-5.66340002 0.17085,-7.4625 z m -10.53,15.6030001 c -2.1356,-2.3564 -6.4455,-1.9304 -9.6277,0.95155 -3.1824,2.8827 -4.0315,7.1305 -1.8966,9.4883 1.8244,2.003 5.2888,2.021 8.3217,0.0432 l 8.7131,9.6182 2.4202,-3.6982 -8.099,-8.9404 c 1.7306,-2.6797 1.7979,-5.6642 0.16837,-7.4627 z m -10.687,16.016 c -2.136,-2.3567 -6.4468,-1.9302 -9.629,0.95271 -3.1824,2.8827 -4.0315,7.1306 -1.8967,9.4883 1.8244,2.003 5.2888,2.021 8.3218,0.0432 l 7.5046,8.2842 3.1694,-2.8711 -7.6398,-8.4334 c 1.7314,-2.6799 1.7992,-5.665 0.16965,-7.4639 z m -10.985,17.187 c -2.1354,-2.3581 -6.447305,-1.9322 -9.630205,0.95143 -3.1831,2.8833 -4.0318,7.1322 -1.8954,9.4896 1.8242,2.0032 5.2888,2.021 8.321705,0.0432 l 5.2146,5.7563 3.1694,-2.8712 -5.351,-5.9068 c 1.7309,-2.6792 1.7992,-5.6634 0.17085,-7.4625 z"
         fill="#ffffff"
         id="path8"
         style="stroke:#9eabc9;stroke-opacity:1" /><path
         d="m95.43 109.48c0.15194-0.13648 0.19158-0.16588 0.35863-0.31678 2.4346-2.1992 6.5303-5.9838 9.8273-8.4331 3.297-2.4492 5.7945-3.563 7.5504-4.1899s2.77-0.7668 3.7036-0.72295c0.93366 0.04385 1.7867 0.27134 2.3626 0.36122 0.57592 0.08988 0.87496 0.04209 10.079-7.3293 9.2045-7.3714 27.321-22.071 37.61-30.435 10.288-8.3639 12.758-10.4 9.5829-18.039-3.1752-7.6385-11.995-20.879-16.406-27.499-4.4103-6.6202-4.4114-6.6214-15.826 4.9894-11.415 11.611-5.461 5.5545-27.391 27.848-21.93 22.294-22.173 22.518-22.321 23.338s-0.19961 2.1599-0.39016 3.3889-0.51471 2.1974-1.0377 3.2215-1.2419 2.0998-2.4619 3.577c-1.22 1.4773-2.903 3.312-5.6415 5.9061-2.4217 2.294-5.66 5.1616-8.9622 8.0739a67.733 67.733 0 0 0 19.363 16.261z"
         fill="#fff"
         stroke-linecap="round"
         stroke-linejoin="round"
         stroke-width="3.5"
         id="path7" /><g
         fill="#24345e"
         id="g11"
         style="stroke:none;stroke-opacity:1"><circle
           transform="rotate(47.827)"
           cx="123.81"
           cy="-39.214"
           r="4.787"
           id="circle8"
           style="stroke:none;stroke-opacity:1" /><circle
           transform="rotate(47.827)"
           cx="122.22"
           cy="-58.775"
           r="4.787"
           id="circle9"
           style="stroke:none;stroke-opacity:1" /><circle
           transform="rotate(47.827)"
           cx="120.42"
           cy="-77.56"
           r="4.787"
           id="circle10"
           style="stroke:none;stroke-opacity:1" /><circle
           transform="rotate(47.827)"
           cx="118.29"
           cy="-95.532"
           r="4.787"
           id="circle11"
           style="stroke:none;stroke-opacity:1" /></g></g></g></svg>
