<?xml version="1.0" encoding="UTF-8" standalone="no"?>
<!-- Created with Inkscape (http://www.inkscape.org/) -->

<svg
   width="135.47mm"
   height="135.47mm"
   version="1.1"
   viewBox="0 0 135.47 135.47"
   xml:space="preserve"
   id="svg7"
   sodipodi:docname="Input_settings_icon_-_Steering_Wheel.svg"
   inkscape:version="1.4 (86a8ad7, 2024-10-11)"
   xmlns:inkscape="http://www.inkscape.org/namespaces/inkscape"
   xmlns:sodipodi="http://sodipodi.sourceforge.net/DTD/sodipodi-0.dtd"
   xmlns="http://www.w3.org/2000/svg"
   xmlns:svg="http://www.w3.org/2000/svg"><defs
     id="defs7" /><sodipodi:namedview
     id="namedview7"
     pagecolor="#ffffff"
     bordercolor="#000000"
     borderopacity="0.25"
     inkscape:showpageshadow="2"
     inkscape:pageopacity="0.0"
     inkscape:pagecheckerboard="0"
     inkscape:deskcolor="#d1d1d1"
     inkscape:document-units="mm"
     inkscape:zoom="1.5702356"
     inkscape:cx="190.73571"
     inkscape:cy="241.68348"
     inkscape:window-width="2560"
     inkscape:window-height="1344"
     inkscape:window-x="-9"
     inkscape:window-y="-9"
     inkscape:window-maximized="1"
     inkscape:current-layer="g5" /><g
     transform="matrix(1.613 0 0 1.613 315.74 159.42)"
     fill="#24345e"
     id="g7"><g
       id="g6"><circle
         transform="matrix(.61996 0 0 .61996 -195.75 -98.832)"
         cx="67.733"
         cy="67.733"
         r="67.733"
         fill="#24345e"
         stroke-width="5.4276"
         id="circle1" /><circle
         transform="matrix(.92064 0 0 .92064 5.9083 -19.017)"
         cx="-173.86"
         cy="-40.062"
         r="34.16"
         fill="#9eabc9"
         stroke-width="2.7373"
         id="circle2" /><g
         fill="#fff"
         stroke="#24345e"
         stroke-linecap="round"
         stroke-linejoin="round"
         id="g5"><g
           id="g4"><path
             d="m-161.23-67.807-20.415 3.1353c-3.7094 0.56967-4.3104 2.7001-4.3104 6.0542 0 3.3541 0.60091 5.4848 4.3104 6.0545l19.315 2.9665c-0.0474 0.42901-0.0497 0.86871 4e-3 1.3177l3.8207 21.705c0.29522 2.5104 2.2803 4.1897 5.1129 4.1897s4.818-1.6793 5.1132-4.1897l2.9941-21.532c0.0511-0.43454 0.87794-1.0327 0.83566-1.4487l19.584-3.0077c3.7094-0.56967 3.2875-2.7003 3.2875-6.0545 0-3.3541 0.42196-5.4845-3.2875-6.0542l-20.415-3.1353c-4.7293-0.64304-9.6988-0.97651-15.947 0z"
             stroke-width="1.0744"
             id="path2" /><circle
             cx="-153.76"
             cy="-57.116"
             r="14.395"
             stroke-width="2.1889"
             id="circle3" /><circle
             cx="-153.76"
             cy="-57.116"
             r="9.7907"
             stroke-width="1.3053"
             id="circle4" /></g><path
           d="m -153.76,-91.999 c -19.383,0 -35.16,15.775 -35.16,35.158 0,19.383 15.777,35.16 35.16,35.16 19.383,-2e-6 35.16,-15.777 35.16,-35.16 0,-19.383 -15.777,-35.158 -35.16,-35.158 z m 0,5.8555 c 16.218,0 29.303,13.084 29.303,29.303 0,16.218 -13.084,29.303 -29.303,29.303 -16.218,3e-6 -29.303,-13.084 -29.303,-29.303 0,-16.218 13.084,-29.303 29.303,-29.303 z"
           stroke-width="1.0003"
           id="path4"
           style="display:inline"
           sodipodi:nodetypes="ssssssssss" /></g><path
         d="m -153.76,-92.56 c -19.692,0 -35.721,16.026 -35.721,35.719 0,19.692 16.028,35.721 35.721,35.721 19.692,-3e-6 35.721,-16.028 35.721,-35.721 0,-19.692 -16.028,-35.719 -35.721,-35.719 z"
         fill="none"
         stroke="#9eabc9"
         stroke-linecap="round"
         stroke-linejoin="round"
         stroke-width="2.2045"
         id="path5"
         style="display:inline" /></g></g></svg>
