<svg xmlns="http://www.w3.org/2000/svg" viewBox="0 0 288 288"><path d="M110.7722 44.30438h22.1515v22.152606h-22.1515zm44.3041 0h22.1515v22.152606h-22.1515zm66.45559 44.304099c3.00009 0 5.85562.577111 8.5666 1.731333 2.71209 1.153109 5.07724 2.710975 7.09657 4.672485 2.01822 1.961509 3.605 4.268841 4.75922 6.921993 1.15311 2.65427 1.73022 5.48089 1.73022 8.47986v155.75766c0 3.00008-.57711 5.8267-1.73022 8.47986-1.15422 2.65315-2.741 4.96159-4.75922 6.9231-2.01933 1.9604-4.38448 3.51827-7.09657 4.67249a21.653332 21.653332 0 01-8.5666 1.73022c-51.68867.05-103.37511 0-155.063785 0a21.661116 21.661116 0 01-8.566593-1.73022c-2.712087-1.15422-5.077241-2.71209-7.096573-4.67249-2.01822-1.96151-3.604997-4.26995-4.759218-6.9231-1.15311-2.65316-1.730221-5.47978-1.730221-8.47986V110.41415c0-2.99897.577111-5.82671 1.730221-8.47986 1.154221-2.653152 2.740998-4.960484 4.759218-6.921993 2.019332-1.96151 4.384486-3.519376 7.096573-4.672485a21.653332 21.653332 0 018.566593-1.731333V.00028166H221.53189zm-132.912291 0H199.3804V22.152887H88.619599zM221.53301 110.76108H66.466993v155.06379H221.53078z" fill="#b23d25"/></svg>