<?xml version="1.0" encoding="utf-8"?>
<!-- Generator: Adobe Illustrator 19.0.0, SVG Export Plug-In . SVG Version: 6.00 Build 0)  -->
<svg version="1.1" id="Layer_1" xmlns="http://www.w3.org/2000/svg" xmlns:xlink="http://www.w3.org/1999/xlink" x="0px" y="0px"
	 viewBox="-159.3 262.8 258.9 258.9" style="enable-background:new -159.3 262.8 258.9 258.9;" xml:space="preserve">
<style type="text/css">
	.st0{fill:#B23D25;}
</style>
<path class="st0" d="M81.1,262.8c2.6,0,5.1,0.5,7.3,1.4c2.2,0.9,4.2,2.3,5.9,4c1.7,1.7,3,3.7,4,5.9c0.9,2.2,1.4,4.6,1.4,7.3v240.5
	h-226l-33-33.2V281.3c0-2.6,0.5-5.1,1.5-7.3s2.3-4.2,4-5.9c1.7-1.7,3.6-3,5.8-4c2.2-0.9,4.6-1.4,7.3-1.4H81.1z M-103.9,373.8h148
	v-92.5h-148V373.8z M7.1,447.8h-92.5v55.5h18.5v-37h18.5v37H7.1V447.8z M81.1,281.3H62.6v111h-185v-111h-18.5v199.5l22.3,22.5h14.7
	v-74H25.6v74h55.5V281.3z"/>
</svg>
