<svg xmlns="http://www.w3.org/2000/svg" viewBox="0 0 250 250"><g transform="translate(-16.144 -63.292)" color="#000" fill-rule="evenodd" stroke="#000"><circle r="118.92159" cy="188.29201" cx="141.14433" overflow="visible" fill="#5f5f5f" stroke-width="4.15681124"/><path d="M141.14433 87.594225c-11.64775 0-21.0251 9.377348-21.0251 21.025095v58.6496H61.471653c-11.647747 0-21.025096 9.37535-21.025096 21.02308 0 11.64774 9.377349 21.02509 21.025096 21.02509h58.647577v58.64961c0 11.64774 9.37735 21.02307 21.0251 21.02307 11.64773 0 21.02509-9.37533 21.02509-21.02307v-58.64961H220.817c11.64775 0 21.0251-9.37735 21.0251-21.02509 0-11.64773-9.37735-21.02308-21.0251-21.02308h-58.64758v-58.6496c0-11.647747-9.37736-21.025095-21.02509-21.025095z" overflow="visible" fill="#b8b8b8" stroke-width="2.06559539"/></g></svg>