<?xml version="1.0" encoding="utf-8"?>
<!-- Generator: Adobe Illustrator 16.0.0, SVG Export Plug-In . SVG Version: 6.00 Build 0)  -->
<!DOCTYPE svg PUBLIC "-//W3C//DTD SVG 1.1//EN" "http://www.w3.org/Graphics/SVG/1.1/DTD/svg11.dtd">
<svg version="1.1" id="Layer_1" xmlns="http://www.w3.org/2000/svg" xmlns:xlink="http://www.w3.org/1999/xlink" x="0px" y="0px"
	 width="25px" height="25px" viewBox="0 0 25 25" enable-background="new 0 0 25 25" xml:space="preserve">
<circle fill="#1E3561" cx="12.48" cy="12.48" r="12.48"/>
<circle fill="#FFFFFF" cx="12.48" cy="5.492" r="3.495"/>
<circle fill="#FFFFFF" cx="12.48" cy="19.469" r="3.495"/>
<circle fill="#FFFFFF" cx="5.491" cy="12.48" r="3.495"/>
<circle fill="#FFFFFF" cx="19.47" cy="12.48" r="3.495"/>
<g>
	<path fill="#1E3561" d="M13.846,18.276c0,0.28-0.082,0.514-0.245,0.699c-0.164,0.187-0.394,0.312-0.69,0.378v0.024
		c0.354,0.043,0.621,0.154,0.798,0.33c0.178,0.177,0.267,0.411,0.267,0.704c0,0.426-0.15,0.753-0.451,0.984
		s-0.728,0.347-1.283,0.347c-0.49,0-0.904-0.08-1.24-0.238v-0.633c0.188,0.093,0.386,0.164,0.596,0.213
		c0.21,0.052,0.412,0.077,0.605,0.077c0.344,0,0.6-0.064,0.769-0.189c0.169-0.129,0.254-0.324,0.254-0.591
		c0-0.236-0.094-0.41-0.281-0.521c-0.188-0.111-0.482-0.166-0.884-0.166h-0.384v-0.577h0.39c0.707,0,1.06-0.246,1.06-0.733
		c0-0.189-0.062-0.336-0.185-0.439c-0.123-0.103-0.305-0.154-0.545-0.154c-0.167,0-0.329,0.024-0.484,0.071
		c-0.156,0.049-0.338,0.141-0.551,0.276l-0.347-0.495c0.405-0.299,0.876-0.448,1.413-0.448c0.446,0,0.794,0.096,1.044,0.288
		C13.721,17.675,13.846,17.938,13.846,18.276z"/>
</g>
<g>
	<path fill="#1E3561" d="M6.824,13.732H6.228v0.966H5.536v-0.966H3.514v-0.548l2.021-2.922h0.692v2.881h0.596V13.732z M5.536,13.144
		v-1.11c0-0.396,0.01-0.72,0.03-0.972H5.542c-0.056,0.134-0.146,0.295-0.267,0.483l-1.098,1.599H5.536z"/>
</g>
<g>
	<path fill="#1E3561" d="M20.968,14.725H17.97v-0.539l1.141-1.146c0.337-0.346,0.561-0.59,0.67-0.733
		c0.11-0.146,0.191-0.28,0.241-0.408c0.051-0.126,0.076-0.263,0.076-0.407c0-0.201-0.061-0.357-0.181-0.473
		c-0.12-0.114-0.287-0.172-0.498-0.172c-0.17,0-0.333,0.031-0.492,0.094c-0.157,0.062-0.341,0.176-0.548,0.338l-0.385-0.469
		c0.247-0.207,0.486-0.355,0.717-0.44c0.232-0.088,0.48-0.132,0.742-0.132c0.412,0,0.741,0.107,0.989,0.323
		c0.248,0.215,0.372,0.504,0.372,0.867c0,0.199-0.035,0.389-0.107,0.568c-0.072,0.18-0.182,0.364-0.33,0.555
		c-0.148,0.191-0.395,0.449-0.74,0.773l-0.769,0.744v0.03h2.099V14.725z"/>
</g>
<g>
	<path fill="#1E3561" d="M13.063,7.703h-0.711V4.847c0-0.341,0.008-0.611,0.024-0.811c-0.046,0.049-0.103,0.102-0.171,0.16
		c-0.067,0.059-0.294,0.244-0.679,0.557l-0.357-0.45L12.47,3.28h0.594V7.703z"/>
</g>
</svg>
