<?xml version="1.0" encoding="UTF-8" standalone="no"?>
<svg xmlns:svg="http://www.w3.org/2000/svg" xmlns="http://www.w3.org/2000/svg" xml:space="preserve" enable-background="new 0 0 50 50" viewBox="0 0 50 50" height="50px" width="50px" y="0px" x="0px" id="Layer_1" version="1.1"><metadata id="metadata15"></metadata>
    <path d="m 43.40629,3.5260001 c 0.43824,0 0.83997,0.07761 1.20517,0.232818 0.365201,0.155211 0.689321,0.374334 0.972361,0.657368 0.283029,0.283032 0.50215,0.607152 0.657359,0.972356 0.15521,0.365204 0.23282,0.766928 0.23282,1.205172 V 46.474 H 9.0040605 L 3.5259995,40.96855 V 6.5937141 c 0,-0.438244 0.0822,-0.839968 0.24651,-1.205172 0.16434,-0.365204 0.38347,-0.689324 0.65737,-0.972356 0.2739,-0.283034 0.59346,-0.502157 0.95866,-0.657368 0.36521,-0.155211 0.76693,-0.232818 1.20517,-0.232818 z M 12.729141,21.932286 H 37.27086 V 6.5937141 H 12.729141 Z M 31.13543,34.20314 H 15.796861 v 9.20315 h 3.067709 v -6.13543 h 3.06772 v 6.13543 h 9.20314 z" id="path2-3" style="fill:#1E3561;stroke-width:0.16582239"></path>
</svg>