<?xml version="1.0" encoding="utf-8"?>
<!-- Generator: Adobe Illustrator 16.0.0, SVG Export Plug-In . SVG Version: 6.00 Build 0)  -->
<!DOCTYPE svg PUBLIC "-//W3C//DTD SVG 1.1//EN" "http://www.w3.org/Graphics/SVG/1.1/DTD/svg11.dtd">
<svg version="1.1" id="Layer_1" xmlns="http://www.w3.org/2000/svg" xmlns:xlink="http://www.w3.org/1999/xlink" x="0px" y="0px"
	 width="50px" height="50px" viewBox="0 0 50 50" enable-background="new 0 0 50 50" xml:space="preserve">
<g>
	<path fill="#1E3561" d="M13.953,21.304c-0.504-0.157-1.116-0.233-1.833-0.233h-1.546v7.852h1.777c0.388,0,0.694-0.011,0.914-0.034
		c0.222-0.019,0.451-0.072,0.688-0.154c0.237-0.086,0.441-0.205,0.615-0.355c0.784-0.663,1.175-1.807,1.175-3.427
		c0-1.141-0.172-1.997-0.516-2.564C14.881,21.82,14.457,21.457,13.953,21.304z"/>
	<path fill="#1E3561" d="M27.016,21.358c-0.508-0.317-1.089-0.478-1.748-0.478c-0.466,0-0.9,0.09-1.297,0.266
		c-0.398,0.176-0.738,0.432-1.024,0.77c-0.287,0.336-0.514,0.767-0.68,1.29c-0.167,0.523-0.249,1.11-0.249,1.764
		c0,0.656,0.082,1.25,0.249,1.783c0.166,0.531,0.399,0.971,0.703,1.321c0.302,0.352,0.649,0.613,1.04,0.785
		c0.394,0.174,0.824,0.262,1.292,0.262c0.601,0,1.15-0.151,1.653-0.451c0.503-0.298,0.902-0.763,1.198-1.388
		c0.298-0.626,0.447-1.398,0.447-2.312c0-0.848-0.138-1.582-0.411-2.203S27.524,21.677,27.016,21.358z"/>
	<path fill="#1E3561" d="M25,3.526C13.141,3.526,3.526,13.141,3.526,25S13.141,46.474,25,46.474S46.474,36.859,46.474,25
		S36.859,3.526,25,3.526z M17.939,26.871c-0.124,0.573-0.308,1.089-0.562,1.55c-0.254,0.46-0.575,0.871-0.971,1.236
		c-0.312,0.277-0.649,0.502-1.019,0.671c-0.367,0.168-0.764,0.286-1.187,0.355c-0.424,0.068-0.9,0.101-1.432,0.101H9.714
		c-0.426,0-0.747-0.064-0.961-0.192c-0.216-0.13-0.357-0.31-0.424-0.545c-0.065-0.235-0.098-0.539-0.098-0.911v-8.483
		c0-0.506,0.113-0.871,0.338-1.097c0.228-0.228,0.592-0.34,1.097-0.34h3.054c0.795,0,1.475,0.073,2.044,0.222
		c0.568,0.147,1.083,0.422,1.546,0.828c1.206,1.032,1.808,2.599,1.808,4.705C18.119,25.663,18.06,26.298,17.939,26.871z
		 M30.61,27.423c-0.242,0.732-0.605,1.364-1.089,1.901c-0.485,0.537-1.078,0.946-1.783,1.231c-0.705,0.284-1.514,0.426-2.423,0.426
		c-0.906,0-1.716-0.146-2.431-0.438c-0.715-0.291-1.313-0.703-1.791-1.234c-0.479-0.531-0.841-1.172-1.085-1.917
		c-0.244-0.749-0.367-1.556-0.367-2.423c0-0.89,0.126-1.707,0.382-2.448c0.256-0.742,0.625-1.372,1.11-1.892
		c0.483-0.521,1.072-0.921,1.768-1.198c0.693-0.275,1.483-0.413,2.366-0.413c1.2,0,2.23,0.243,3.09,0.73
		c0.86,0.487,1.51,1.179,1.953,2.075c0.443,0.896,0.663,1.951,0.663,3.159C30.974,25.879,30.854,26.691,30.61,27.423z
		 M39.646,30.508c-0.693,0.316-1.518,0.474-2.469,0.474c-1.143,0-2.083-0.216-2.824-0.646c-0.525-0.311-0.954-0.724-1.282-1.243
		c-0.331-0.519-0.495-1.022-0.495-1.512c0-0.283,0.1-0.527,0.298-0.729c0.197-0.204,0.447-0.306,0.751-0.306
		c0.247,0,0.457,0.078,0.627,0.237c0.174,0.158,0.319,0.392,0.439,0.701c0.147,0.371,0.308,0.679,0.478,0.925
		c0.17,0.248,0.411,0.451,0.721,0.611c0.312,0.161,0.719,0.241,1.225,0.241c0.694,0,1.258-0.163,1.693-0.485
		c0.434-0.323,0.649-0.729,0.649-1.212c0-0.382-0.116-0.693-0.352-0.935c-0.232-0.24-0.534-0.422-0.907-0.55
		c-0.369-0.125-0.866-0.259-1.486-0.399c-0.832-0.197-1.525-0.425-2.087-0.685c-0.562-0.26-1.006-0.615-1.334-1.066
		c-0.329-0.449-0.493-1.007-0.493-1.676c0-0.636,0.174-1.202,0.52-1.695c0.348-0.495,0.851-0.875,1.508-1.141
		s1.432-0.399,2.32-0.399c0.711,0,1.324,0.088,1.842,0.264c0.52,0.176,0.95,0.411,1.29,0.704c0.344,0.292,0.593,0.598,0.751,0.919
		c0.156,0.321,0.237,0.634,0.237,0.94c0,0.277-0.098,0.529-0.297,0.751c-0.196,0.225-0.443,0.336-0.739,0.336
		c-0.268,0-0.47-0.065-0.609-0.201c-0.14-0.135-0.291-0.354-0.453-0.659c-0.212-0.436-0.464-0.776-0.759-1.022
		c-0.296-0.245-0.768-0.367-1.422-0.367c-0.604,0-1.093,0.132-1.462,0.399c-0.372,0.266-0.558,0.585-0.558,0.959
		c0,0.231,0.062,0.43,0.189,0.598c0.128,0.168,0.302,0.313,0.521,0.434s0.445,0.216,0.671,0.285c0.228,0.069,0.6,0.168,1.119,0.3
		c0.654,0.153,1.244,0.321,1.773,0.504c0.527,0.185,0.979,0.409,1.348,0.671c0.373,0.264,0.661,0.596,0.869,0.999
		c0.209,0.401,0.312,0.896,0.312,1.479c0,0.701-0.182,1.328-0.541,1.886C40.867,29.757,40.342,30.192,39.646,30.508z"/>
</g>
</svg>
