<?xml version="1.0" encoding="utf-8"?>
<!-- Generator: Adobe Illustrator 16.0.0, SVG Export Plug-In . SVG Version: 6.00 Build 0)  -->
<!DOCTYPE svg PUBLIC "-//W3C//DTD SVG 1.1//EN" "http://www.w3.org/Graphics/SVG/1.1/DTD/svg11.dtd">
<svg version="1.1" id="Layer_1" xmlns="http://www.w3.org/2000/svg" xmlns:xlink="http://www.w3.org/1999/xlink" x="0px" y="0px"
	 width="50px" height="50px" viewBox="0 0 50 50" enable-background="new 0 0 50 50" xml:space="preserve">
<rect x="30.5" y="15.5" fill-rule="evenodd" clip-rule="evenodd" fill="#1E3561" width="2" height="4"/>
<path fill="#1E3561" d="M42.5,10.5H28.504c0.69-1,1.447-1.985,2.272-2.941l-1.235-1.08C28.493,7.737,27.502,9.5,26.59,10.5H7.5v31
	h20.399c0.316,0,0.656,1.471,1,2.24c0.414-0.189,1.345-0.545,1.436-0.604c-0.025-0.06-0.31-0.636-0.674-1.636H42.5V10.5z M16.5,15.5
	h2v4h-2V15.5z M13.116,31.128c0.313-0.47,0.658-0.887,0.941-1.31c3.578,1.775,7.443,2.422,12.443,2.329l0,0v-0.007l0,0
	c0,0.002,0,0.006,0,0.007l-0.064,1.578C21.587,33.799,16.915,33.065,13.116,31.128z M41.5,40.5H29.351
	c-0.559-2-1.181-4.258-1.364-6.627c2.463-0.301,6.309-1.276,8.719-2.583c0.066-0.035,0.122-0.138,0.183-0.187
	c-0.283-0.417-0.813-0.857-1.108-1.291C33.287,31.097,30.5,31.74,27.5,32.05v-0.002l0,0c0-1.531,0.914-4.548,1.468-5.548
	c-2.128,0-4.166,0-6.317,0c0.359-5,1.97-10,5.172-15H41.5V40.5z"/>
</svg>
