<?xml version="1.0" encoding="UTF-8" standalone="no"?><!DOCTYPE svg PUBLIC "-//W3C//DTD SVG 1.1//EN" "http://www.w3.org/Graphics/SVG/1.1/DTD/svg11.dtd"><svg width="100%" height="100%" viewBox="0 0 25 25" version="1.1" xmlns="http://www.w3.org/2000/svg" xmlns:xlink="http://www.w3.org/1999/xlink" xml:space="preserve" xmlns:serif="http://www.serif.com/" style="fill-rule:evenodd;clip-rule:evenodd;stroke-linejoin:round;stroke-miterlimit:2;"><path d="M19.95,0l-14.9,0c-2.791,0 -5.05,2.259 -5.05,5.05l0,14.903c0,2.788 2.259,5.047 5.05,5.047l14.903,0c2.788,0 5.05,-2.259 5.05,-5.05l0,-14.9c-0.003,-2.791 -2.262,-5.05 -5.053,-5.05Z" style="fill:url(#_Linear1);fill-rule:nonzero;"/><path d="M12.394,5.744l0.506,-0.875c0.313,-0.547 1.009,-0.731 1.556,-0.419c0.547,0.313 0.732,1.009 0.419,1.556l-4.878,8.444l3.528,-0c1.144,-0 1.784,1.344 1.287,2.275l-10.343,-0c-0.632,-0 -1.138,-0.506 -1.138,-1.138c0,-0.631 0.506,-1.137 1.138,-1.137l2.9,-0l3.712,-6.434l-1.159,-2.013c-0.313,-0.547 -0.128,-1.237 0.419,-1.556c0.546,-0.313 1.237,-0.128 1.556,0.419l0.497,0.878Zm-4.388,12.153l-1.094,1.897c-0.312,0.547 -1.009,0.731 -1.556,0.419c-0.547,-0.313 -0.731,-1.01 -0.419,-1.557l0.813,-1.406c0.919,-0.284 1.666,-0.066 2.256,0.647Zm9.419,-3.441l2.959,0c0.632,0 1.138,0.506 1.138,1.138c-0,0.631 -0.506,1.137 -1.138,1.137l-1.643,0l1.109,1.925c0.313,0.547 0.128,1.238 -0.419,1.556c-0.547,0.313 -1.237,0.129 -1.556,-0.418c-1.869,-3.241 -3.272,-5.666 -4.203,-7.282c-0.953,-1.643 -0.272,-3.293 0.4,-3.853c0.747,1.282 1.862,3.216 3.353,5.797Z" style="fill:#fff;fill-rule:nonzero;"/><defs><linearGradient id="_Linear1" x1="0" y1="0" x2="1" y2="0" gradientUnits="userSpaceOnUse" gradientTransform="matrix(1.53081e-15,25,-25,1.53081e-15,12.5016,0)"><stop offset="0" style="stop-color:#18bffb;stop-opacity:1"/><stop offset="1" style="stop-color:#2072f3;stop-opacity:1"/></linearGradient></defs></svg>