<svg xmlns="http://www.w3.org/2000/svg" viewBox="0 0 25 25"><circle cy="12.5" cx="12.5" r="12.5" fill="#0074e0"/><path d="M17.726094 9.710599c-2.287875-1.057826-5.575922-1.729949-8.670047-1.479554.155168-1.024313.537846-1.73807 1.16597-1.8883653.864348-.2072852 1.807608.3614923 2.706651 1.3963613.588926.07626 1.28733.2109 1.773281.322662C13.062723 4.9785039 10.864021 3.2504 9.191652 3.8879c-1.271679.4853617-1.922691 2.2363484-1.844074 4.58933-1.6570155.352412-2.9485546.978842-3.7752538 1.879583-.041859.0485-.1364906.170816-.1027539.229281.025617.04429.1099883-.0052.1461602-.03012.9589101-.670647 2.1865937-1.03369 3.7857355-1.262012.227805 2.510142 1.289766 5.694033 3.053747 8.248172-.964079.378394-1.77424.40342-2.218559-.06533-.611295-.645029-.590848-1.745893-.143724-3.042821-.228397-.5484-.461296-1.220523-.60709-1.697394-1.8518947 2.962654-2.2492634 5.730793-.861317 6.860226 1.056571.859254 2.897618.546852 4.89686-.696557 1.134008 1.259059 2.321905 2.063981 3.515558 2.329731.06297.01182.215995.03285.249729-.02554.02562-.04429-.06024-.09279-.09877-.111763-1.060189-.495326-1.988388-1.377168-2.985611-2.647593 2.060363-1.452463 4.286451-3.96327 5.616595-6.76869.810387.646803 1.235215 1.334649 1.052661 1.95377-.253051.85224-1.216537 1.385805-2.562627 1.645794-.360606.471188-.826996 1.009254-1.16627 1.375028 3.489943.120547 6.085717-.917939 6.369846-2.684946.215996-1.344835-.975223-2.783125-3.0519-3.8927.5236-1.611469.62665-3.042821.25999-4.2093831-.02141-.060234-.0795-.2037407-.147047-.2037407-.05116 0-.05056.098254-.04754.1417329.101501 1.1646419-.197983 2.4098239-.799903 3.9086449zm-6.425508 7.432397c-1.476233-2.368336-2.32707-5.158105-2.321609-7.978953 2.788588-.09338 5.629218.563684 8.069531 1.978795-1.313242 2.461717-3.30311 4.594127-5.748881 5.999863z" fill="#fff"/></svg>